<svg width="247" height="40" viewBox="0 0 247 40" fill="none" xmlns="http://www.w3.org/2000/svg">
<path d="M2 30C2 16.8335 12.8335 6 26 6C39.1665 6 50 16.8335 50 30" stroke="#F33304" stroke-width="4" stroke-miterlimit="10"/>
<path d="M8.00076 30C8.00076 20.1251 16.1252 12.0007 26 12.0007C35.8749 12.0007 43.9993 20.1251 43.9993 30" stroke="#F33304" stroke-width="4" stroke-miterlimit="10"/>
<path d="M14.0015 29.9999C14.0015 23.4167 19.4198 17.9984 26.0031 17.9984C32.5863 17.9984 38.0046 23.4167 38.0046 29.9999" stroke="#F33304" stroke-width="4" stroke-miterlimit="10"/>
<path d="M32.8654 28.8715C32.8654 29.2568 32.835 29.636 32.7713 30.0001H19.2347C19.168 29.633 19.1407 29.2568 19.1407 28.8715C19.1407 25.0823 22.2139 22.0092 26.003 22.0092C29.7922 22.0092 32.8654 25.0823 32.8654 28.8715Z" fill="#F33304" stroke="#F33304" stroke-width="0.25" stroke-miterlimit="10"/>
<path d="M77.8652 24.268L77.9012 22.324C77.4332 22.792 76.6052 23.044 74.8772 23.368C72.2132 23.872 71.3492 24.628 71.3492 26.14C71.3492 27.472 72.1412 28.12 73.6172 28.12C76.0292 28.12 77.8292 26.356 77.8652 24.268ZM82.5812 31H78.2252C78.0812 30.568 77.9732 29.956 77.9372 29.416C76.8212 30.64 74.9492 31.468 72.5732 31.468C68.5412 31.468 66.6692 29.488 66.6692 26.608C66.6692 21.496 70.0892 20.92 74.8052 20.272C77.1452 19.948 77.7932 19.48 77.7932 18.256C77.7932 17.104 76.6412 16.42 74.8052 16.42C72.6812 16.42 71.8172 17.464 71.6012 19.048H67.2452C67.3172 15.376 69.3332 12.82 75.0212 12.82C80.6372 12.82 82.5812 15.34 82.5812 19.804V31ZM100.593 31H96.165V28.516C94.941 30.532 93.105 31.468 90.657 31.468C87.129 31.468 84.645 28.84 84.645 24.952V13.288H89.325V24.232C89.325 26.464 90.333 27.544 92.313 27.544C94.689 27.544 95.949 25.852 95.949 23.512V13.288H100.593V31ZM107.325 31H102.645V13.288H107.037V15.412C108.585 13.036 110.385 12.82 112.293 12.82H112.905V17.608C112.473 17.536 112.041 17.5 111.609 17.5C108.729 17.5 107.325 18.94 107.325 21.784V31ZM124.06 24.268L124.096 22.324C123.628 22.792 122.8 23.044 121.072 23.368C118.408 23.872 117.544 24.628 117.544 26.14C117.544 27.472 118.336 28.12 119.812 28.12C122.224 28.12 124.024 26.356 124.06 24.268ZM128.776 31H124.42C124.276 30.568 124.168 29.956 124.132 29.416C123.016 30.64 121.144 31.468 118.768 31.468C114.736 31.468 112.864 29.488 112.864 26.608C112.864 21.496 116.284 20.92 121 20.272C123.34 19.948 123.988 19.48 123.988 18.256C123.988 17.104 122.836 16.42 121 16.42C118.876 16.42 118.012 17.464 117.796 19.048H113.44C113.512 15.376 115.528 12.82 121.216 12.82C126.832 12.82 128.776 15.34 128.776 19.804V31ZM150.252 24.268L150.288 22.324C149.82 22.792 148.992 23.044 147.264 23.368C144.6 23.872 143.736 24.628 143.736 26.14C143.736 27.472 144.528 28.12 146.004 28.12C148.416 28.12 150.216 26.356 150.252 24.268ZM154.968 31H150.612C150.468 30.568 150.36 29.956 150.324 29.416C149.208 30.64 147.336 31.468 144.96 31.468C140.928 31.468 139.056 29.488 139.056 26.608C139.056 21.496 142.476 20.92 147.192 20.272C149.532 19.948 150.18 19.48 150.18 18.256C150.18 17.104 149.028 16.42 147.192 16.42C145.068 16.42 144.204 17.464 143.988 19.048H139.632C139.704 15.376 141.72 12.82 147.408 12.82C153.024 12.82 154.968 15.34 154.968 19.804V31ZM165.528 27.472C167.796 27.472 169.524 25.564 169.524 22.576C169.524 18.724 168.192 16.888 165.528 16.888C162.9 16.888 161.532 18.652 161.532 22.288C161.532 25.456 163.224 27.472 165.528 27.472ZM169.38 31.54V28.624C168.732 30.208 166.824 31.144 164.52 31.144C158.688 31.144 156.672 26.68 156.672 22.036C156.672 16.528 160.128 12.82 164.412 12.82C166.644 12.82 168.264 13.684 169.38 15.484V13.288H174.06V31.18C174.06 36.508 170.172 39.388 165.24 39.388C160.308 39.388 156.672 36.544 156.672 31.972H161.028C161.028 34.096 162.576 35.356 164.916 35.356C167.4 35.356 169.38 33.88 169.38 31.54ZM180.55 20.416H187.786C187.714 17.788 185.986 16.528 184.15 16.528C182.278 16.528 180.73 17.968 180.55 20.416ZM192.61 23.368H180.406C180.55 26.032 182.062 27.76 184.366 27.76C185.878 27.76 187.21 27.004 187.534 25.78H192.358C191.278 29.416 188.362 31.468 184.582 31.468C178.678 31.468 175.726 28.228 175.726 21.82C175.726 16.348 178.858 12.82 184.294 12.82C189.73 12.82 192.61 16.348 192.61 23.368ZM210.283 31H205.567V20.272C205.567 17.536 204.775 16.78 202.543 16.78C200.095 16.78 198.907 18.148 198.907 20.848V31H194.227V13.288H198.691V15.88C199.771 13.9 201.571 12.82 204.415 12.82C207.799 12.82 210.283 14.872 210.283 18.724V31ZM223.564 24.592H228.28C227.776 28.696 224.428 31.468 220.144 31.468C215.32 31.468 212.008 28.264 212.008 21.928C212.008 15.592 215.32 12.82 220.288 12.82C224.896 12.82 228.028 15.448 228.316 19.624H223.6C223.348 17.788 222.016 16.708 220.252 16.708C218.272 16.708 216.652 17.968 216.652 21.82C216.652 25.672 218.272 27.544 220.108 27.544C221.944 27.544 223.384 26.5 223.564 24.592ZM240.933 31.54V28.66C240.285 30.244 238.341 31.18 236.145 31.18C232.437 31.18 229.665 28.66 229.665 24.772V13.288H234.345V24.088C234.345 26.284 235.353 27.4 237.333 27.4C239.457 27.4 240.933 25.996 240.933 24.088V13.288H245.613V31.468C245.613 36.472 242.013 39.388 237.477 39.388C232.293 39.388 229.665 36.544 229.665 31.972H234.021C234.021 34.06 235.245 35.356 237.693 35.356C239.385 35.356 240.933 33.88 240.933 31.54Z" fill="#121212"/>
</svg>
