<?xml version="1.0" encoding="UTF-8"?>
<svg id="Layer_2" xmlns="http://www.w3.org/2000/svg" viewBox="0 0 170.23 85.24" class="w-48 h-24">
  <defs>
    <style>
    </style>
  </defs>
  <g id="Layer_1-2" data-name="Layer_1">
    <g>
      <g>
        <path class="cls-1" d="M170.23,85.11h-12c0-40.31-32.8-73.11-73.11-73.11S12,44.8,12,85.11H0c0-22.59,8.89-43.93,25.04-60.07C41.19,8.89,62.52,0,85.11,0s43.93,8.89,60.07,25.04c16.15,16.15,25.04,37.48,25.04,60.07Z"/>
        <path class="cls-1" d="M150.45,85.11h-12c0-29.41-23.93-53.33-53.33-53.33s-53.33,23.93-53.33,53.33h-12c0-36.03,29.31-65.33,65.33-65.33s65.33,29.31,65.33,65.33Z"/>
        <path class="cls-1" d="M130.67,85.11h-12c0-18.5-15.05-33.56-33.56-33.56s-33.56,15.05-33.56,33.56h-12c0-25.12,20.44-45.56,45.56-45.56s45.56,20.44,45.56,45.56Z"/>
      </g>
      <g>
        <path class="cls-1" d="M107.74,81.39c0,1.27-.1,2.52-.31,3.72h-44.62c-.22-1.21-.31-2.45-.31-3.72,0-12.49,10.13-22.62,22.62-22.62s22.62,10.13,22.62,22.62Z"/>
        <path class="cls-1" d="M107.53,85.24h-44.83l-.02-.1c-.21-1.18-.32-2.44-.32-3.75,0-12.54,10.2-22.75,22.75-22.75s22.75,10.21,22.75,22.75c0,1.3-.11,2.57-.32,3.75l-.02.1ZM62.91,84.99h44.41c.2-1.14.29-2.35.29-3.6,0-12.41-10.09-22.5-22.5-22.5s-22.5,10.09-22.5,22.5c0,1.25.1,2.46.29,3.6Z"/>
      </g>
    </g>
  </g>
</svg>